:FULLY-SPECIFIED
:FORCE-ALL-JOINTS-BE-3DOF
:DEGREES
130
root 9.06599 16.0614 -19.0781 5.78075 7.21448 4.51355
lfemur 16.3098 2.12007 -25.0366
ltibia 6.2709 0 0
lfoot -11.3461 0.568803 0
ltoes -7.59273 0 0
rfemur -41.1854 9.39711 7.74301
rtibia 27.8114 0 0
rfoot -21.8412 -11.3219 0
rtoes -19.2719 0 0
lowerback -7.89387 -3.66921 -5.53186
upperback -1.25485 -4.4696 2.29525
thorax 3.73093 -2.31952 4.98549
lowerneck -19.5051 -5.60772 -13.4775
upperneck 20.256 -6.53947 11.5183
head 10.5816 -2.75131 5.41885
lclavicle -3.33678e-014 -2.59062e-015 0
lhumerus -31.4471 -22.0672 95.8062
lradius 36.6918 0 0
lwrist 7.00512 0 0
lhand -10.1745 -23.4905 0
lfingers 7.12502 0 0
lthumb 15.8141 5.86474 0
rclavicle -3.33678e-014 -2.59062e-015 0
rhumerus -47.1138 6.35059 -82.4527
rradius 33.0139 0 0
rwrist -17.9162 0 0
rhand -29.6585 -23.5837 0
rfingers 7.12502 0 0
rthumb -2.98768 -53.5425 0
131
root 9.03857 16.0725 -18.9179 5.84432 7.31727 4.34117
lfemur 15.9263 2.33624 -24.5758
ltibia 7.52508 0 0
lfoot -10.5704 0.76348 0
ltoes -7.90428 0 0
rfemur -40.9351 9.09477 8.27712
rtibia 28.1214 0 0
rfoot -21.4003 -10.9335 0
rtoes -18.9898 0 0
lowerback -7.80558 -3.64226 -5.36689
upperback -1.27082 -4.44955 2.33852
thorax 3.65432 -2.30637 4.94529
lowerneck -19.5173 -5.6436 -13.5184
upperneck 20.0974 -6.58579 11.6195
head 10.5407 -2.76376 5.45121
lclavicle -3.00201e-014 -2.94971e-015 0
lhumerus -31.7578 -21.2618 95.5883
lradius 35.9865 0 0
lwrist 6.34719 0 0
lhand -9.94501 -23.3257 0
lfingers 7.12502 0 0
lthumb 16.0349 6.00898 0
rclavicle -3.00201e-014 -2.94971e-015 0
rhumerus -47.0903 6.33532 -82.4113
rradius 32.9065 0 0
rwrist -17.8911 0 0
rhand -29.6576 -23.7007 0
rfingers 7.12502 0 0
rthumb -2.98677 -53.6595 0
132
root 9.01114 16.0837 -18.7577 5.90789 7.42007 4.1688
lfemur 15.5427 2.55242 -24.1149
ltibia 8.77926 0 0
lfoot -9.79462 0.958157 0
ltoes -8.21582 0 0
rfemur -40.6848 8.79243 8.81123
rtibia 28.4315 0 0
rfoot -20.9594 -10.545 0
rtoes -18.7077 0 0
lowerback -7.71729 -3.61531 -5.20192
upperback -1.28678 -4.4295 2.38178
thorax 3.57771 -2.29321 4.90508
lowerneck -19.5296 -5.67948 -13.5593
upperneck 19.9387 -6.63211 11.7207
head 10.4998 -2.77622 5.48356
lclavicle -2.66724e-014 -3.30881e-015 0
lhumerus -32.0686 -20.4564 95.3703
lradius 35.2812 0 0
lwrist 5.68925 0 0
lhand -9.71551 -23.1609 0
lfingers 7.12502 0 0
lthumb 16.2557 6.15321 0
rclavicle -2.66724e-014 -3.30881e-015 0
rhumerus -47.0668 6.32005 -82.3699
rradius 32.7991 0 0
rwrist -17.8661 0 0
rhand -29.6566 -23.8177 0
rfingers 7.12502 0 0
rthumb -2.98586 -53.7765 0
133
root 8.98371 16.0949 -18.5976 5.97146 7.52286 3.99642
lfemur 15.1591 2.7686 -23.6541
ltibia 10.0334 0 0
lfoot -9.01886 1.15283 0
ltoes -8.52737 0 0
rfemur -40.4344 8.49009 9.34534
rtibia 28.7415 0 0
rfoot -20.5185 -10.1566 0
rtoes -18.4257 0 0
lowerback -7.62899 -3.58836 -5.03694
upperback -1.30275 -4.40946 2.42505
thorax 3.50109 -2.28006 4.86487
lowerneck -19.5419 -5.71535 -13.6001
upperneck 19.78 -6.67843 11.8219
head 10.4589 -2.78868 5.51591
lclavicle -2.33248e-014 -3.6679e-015 0
lhumerus -32.3793 -19.651 95.1524
lradius 34.5759 0 0
lwrist 5.03132 0 0
lhand -9.48601 -22.9961 0
lfingers 7.12502 0 0
lthumb 16.4765 6.29744 0
rclavicle -2.33248e-014 -3.6679e-015 0
rhumerus -47.0434 6.30478 -82.3285
rradius 32.6916 0 0
rwrist -17.8411 0 0
rhand -29.6557 -23.9346 0
rfingers 7.12502 0 0
rthumb -2.98496 -53.8935 0
